<svg xmlns="http://www.w3.org/2000/svg" width="40" height="40" viewBox="0 0 40 40">
  <g id="Group_268" data-name="Group 268" transform="translate(-617 -8546)">
    <g id="Path_525" data-name="Path 525" transform="translate(617 8546)" fill="none">
      <path d="M20,0A20,20,0,1,1,0,20,20,20,0,0,1,20,0Z" stroke="none"/>
      <path d="M 20 2 C 15.19202041625977 2 10.67182922363281 3.872329711914063 7.272079467773438 7.272079467773438 C 3.872329711914063 10.67182922363281 2 15.19202041625977 2 20 C 2 24.80797004699707 3.872329711914063 29.32817077636719 7.272079467773438 32.72792053222656 C 10.67182922363281 36.12767028808594 15.19202041625977 38 20 38 C 24.80797004699707 38 29.32817077636719 36.12767028808594 32.72792053222656 32.72792053222656 C 36.12767028808594 29.32817077636719 38 24.80797004699707 38 20 C 38 15.19202041625977 36.12767028808594 10.67182922363281 32.72792053222656 7.272079467773438 C 29.32817077636719 3.872329711914063 24.80797004699707 2 20 2 M 20 0 C 31.04568862915039 0 40 8.954299926757813 40 20 C 40 31.04568862915039 31.04568862915039 40 20 40 C 8.954299926757813 40 0 31.04568862915039 0 20 C 0 8.954299926757813 8.954299926757813 0 20 0 Z" stroke="none" fill="#ef571e"/>
    </g>
    <path id="Path_526" data-name="Path 526" d="M15.515,0,9,6.515,2.485,0,0,2.485,6.515,9,0,15.515,2.485,18,9,11.485,15.515,18,18,15.515,11.485,9,18,2.485Z" transform="translate(628 8557)" fill="#ef571e"/>
  </g>
</svg>
