<svg xmlns="http://www.w3.org/2000/svg" width="57" height="54.063" viewBox="0 0 57 54.063">
  <g id="Group_241" data-name="Group 241" transform="translate(-263.587 -9773.5)">
    <g id="Group_230" data-name="Group 230">
      <circle id="Ellipse_57" data-name="Ellipse 57" cx="8" cy="8" r="8" transform="translate(284 9775)" fill="#fff"/>
      <path id="Path_544" data-name="Path 544" d="M2305.544,9788.05h12.5s4.252,3.948,3.432,9.685-17.877,5.388-19.124.735S2305.544,9788.05,2305.544,9788.05Z" transform="translate(-2020)" fill="#fff"/>
    </g>
    <g id="Group_231" data-name="Group 231" transform="translate(17 24)">
      <circle id="Ellipse_57-2" data-name="Ellipse 57" cx="8" cy="8" r="8" transform="translate(284 9775)" fill="#fff"/>
      <path id="Path_544-2" data-name="Path 544" d="M2305.544,9788.05h12.5s4.252,3.948,3.432,9.685-17.877,5.388-19.124.735S2305.544,9788.05,2305.544,9788.05Z" transform="translate(-2020)" fill="#fff"/>
    </g>
    <g id="Group_232" data-name="Group 232" transform="translate(-17 24)">
      <circle id="Ellipse_57-3" data-name="Ellipse 57" cx="8" cy="8" r="8" transform="translate(284 9775)" fill="#fff"/>
      <path id="Path_544-3" data-name="Path 544" d="M2305.544,9788.05h12.5s4.252,3.948,3.432,9.685-17.877,5.388-19.124.735S2305.544,9788.05,2305.544,9788.05Z" transform="translate(-2020)" fill="#fff"/>
    </g>
    <path id="Union_47" data-name="Union 47" d="M-1980.731,52.235a8.354,8.354,0,0,1-4.363-3.012,6.186,6.186,0,0,1-1.069-3.562,8.168,8.168,0,0,1,.1-1.26,13.755,13.755,0,0,1,1.426-3.953,15.3,15.3,0,0,1,2.18-3.221,8.8,8.8,0,0,1-1.477-4.891,8.853,8.853,0,0,1,8.853-8.852,8.852,8.852,0,0,1,8.851,8.852,8.807,8.807,0,0,1-1.476,4.891,15.271,15.271,0,0,1,2.179,3.22A13.69,13.69,0,0,1-1964.1,44.4a8.413,8.413,0,0,1,.1,1.258,6.189,6.189,0,0,1-1.07,3.562,7.353,7.353,0,0,1-2.682,2.3,16.036,16.036,0,0,1-7.33,1.539A18.163,18.163,0,0,1-1980.731,52.235Zm-1.745-10.663a11.437,11.437,0,0,0-1.182,3.208,5.821,5.821,0,0,0-.07.881,3.735,3.735,0,0,0,.64,2.184,4.97,4.97,0,0,0,1.815,1.528,13.752,13.752,0,0,0,6.193,1.258,15.821,15.821,0,0,0,4.879-.7,5.963,5.963,0,0,0,3.127-2.082,3.729,3.729,0,0,0,.642-2.186,5.683,5.683,0,0,0-.072-.879,11.37,11.37,0,0,0-1.181-3.208,13.381,13.381,0,0,0-1.652-2.51,8.808,8.808,0,0,1-5.743,2.125,8.8,8.8,0,0,1-5.746-2.128A13.555,13.555,0,0,0-1982.476,41.572Zm2.857-13.775a6.381,6.381,0,0,0-1.881,4.538,6.4,6.4,0,0,0,1.881,4.539,6.392,6.392,0,0,0,4.538,1.878,6.393,6.393,0,0,0,4.537-1.878,6.4,6.4,0,0,0,1.88-4.539,6.383,6.383,0,0,0-1.88-4.538,6.4,6.4,0,0,0-4.537-1.881A6.394,6.394,0,0,0-1979.619,27.8Zm-34.95,24.438a8.357,8.357,0,0,1-4.362-3.015A6.167,6.167,0,0,1-2020,45.659a8.206,8.206,0,0,1,.1-1.258,13.7,13.7,0,0,1,1.427-3.954,15.253,15.253,0,0,1,2.179-3.22,8.807,8.807,0,0,1-1.478-4.891,8.854,8.854,0,0,1,8.852-8.852,8.854,8.854,0,0,1,8.853,8.852,8.791,8.791,0,0,1-1.478,4.891,15.352,15.352,0,0,1,2.179,3.22,13.714,13.714,0,0,1,1.426,3.954,8.038,8.038,0,0,1,.1,1.26,6.181,6.181,0,0,1-1.07,3.562,7.363,7.363,0,0,1-2.68,2.3,16.039,16.039,0,0,1-7.33,1.539A18.163,18.163,0,0,1-2014.568,52.235Zm-1.746-10.663a11.41,11.41,0,0,0-1.18,3.208,5.641,5.641,0,0,0-.072.879,3.731,3.731,0,0,0,.641,2.184,4.949,4.949,0,0,0,1.815,1.529,13.746,13.746,0,0,0,6.193,1.259,15.818,15.818,0,0,0,4.88-.7,5.973,5.973,0,0,0,3.127-2.082,3.741,3.741,0,0,0,.642-2.184,5.657,5.657,0,0,0-.073-.881,11.389,11.389,0,0,0-1.18-3.208,13.448,13.448,0,0,0-1.651-2.51,8.81,8.81,0,0,1-5.744,2.125,8.8,8.8,0,0,1-5.745-2.128A13.746,13.746,0,0,0-2016.314,41.572Zm2.859-13.775a6.385,6.385,0,0,0-1.88,4.538,6.406,6.406,0,0,0,1.878,4.539,6.4,6.4,0,0,0,4.54,1.878,6.392,6.392,0,0,0,4.537-1.878,6.4,6.4,0,0,0,1.881-4.539,6.384,6.384,0,0,0-1.881-4.538,6.4,6.4,0,0,0-4.537-1.882A6.4,6.4,0,0,0-2013.456,27.8Zm15.807.953a8.335,8.335,0,0,1-4.362-3.014,6.158,6.158,0,0,1-1.069-3.562,8.033,8.033,0,0,1,.1-1.257,13.62,13.62,0,0,1,1.427-3.955,15.34,15.34,0,0,1,2.177-3.221,8.8,8.8,0,0,1-1.475-4.889A8.853,8.853,0,0,1-1992,0a8.854,8.854,0,0,1,8.852,8.853,8.8,8.8,0,0,1-1.475,4.889,15.382,15.382,0,0,1,2.177,3.221,13.613,13.613,0,0,1,1.426,3.955,7.916,7.916,0,0,1,.1,1.257,6.181,6.181,0,0,1-1.069,3.562,7.358,7.358,0,0,1-2.683,2.3,16.079,16.079,0,0,1-7.33,1.539A18.156,18.156,0,0,1-1997.649,28.75Zm-1.746-10.663a11.48,11.48,0,0,0-1.181,3.209,5.824,5.824,0,0,0-.071.879,3.733,3.733,0,0,0,.643,2.184,4.917,4.917,0,0,0,1.812,1.527A13.729,13.729,0,0,0-1992,27.144a15.748,15.748,0,0,0,4.879-.7,5.978,5.978,0,0,0,3.128-2.08,3.742,3.742,0,0,0,.642-2.187,5.627,5.627,0,0,0-.072-.879,11.442,11.442,0,0,0-1.18-3.209,13.612,13.612,0,0,0-1.651-2.51A8.815,8.815,0,0,1-1992,17.7a8.809,8.809,0,0,1-5.745-2.127A13.586,13.586,0,0,0-1999.4,18.088Zm2.858-13.773a6.388,6.388,0,0,0-1.882,4.538,6.388,6.388,0,0,0,1.882,4.538A6.393,6.393,0,0,0-1992,15.27a6.394,6.394,0,0,0,4.539-1.88,6.4,6.4,0,0,0,1.882-4.538,6.4,6.4,0,0,0-1.882-4.538A6.387,6.387,0,0,0-1992,2.433,6.382,6.382,0,0,0-1996.537,4.315Z" transform="translate(2284.086 9774)" fill="#24ab74" stroke="rgba(0,0,0,0)" stroke-miterlimit="10" stroke-width="1"/>
  </g>
</svg>
