<svg xmlns="http://www.w3.org/2000/svg" xmlns:xlink="http://www.w3.org/1999/xlink" width="40" height="40" viewBox="0 0 40 40">
  <defs>
    <clipPath id="clip-path">
      <rect id="Rectangle_199" data-name="Rectangle 199" width="20" height="17.227" fill="#24ab74"/>
    </clipPath>
  </defs>
  <g id="Group_200" data-name="Group 200" transform="translate(-601 -8453)">
    <g id="Group_199" data-name="Group 199" transform="translate(611 8464)">
      <g id="Group_143" data-name="Group 143" clip-path="url(#clip-path)">
        <path id="Path_498" data-name="Path 498" d="M18.337,0C13.051,2.936,7.7,11.289,7.7,11.289L2.872,5.808,0,8.549l6.982,8.679,2.545-.1A42.824,42.824,0,0,1,20,.783Z" transform="translate(-0.001)" fill="#24ab74"/>
      </g>
    </g>
    <g id="Path_523" data-name="Path 523" transform="translate(601 8453)" fill="none">
      <path d="M20,0A20,20,0,1,1,0,20,20,20,0,0,1,20,0Z" stroke="none"/>
      <path d="M 20 2 C 15.19202041625977 2 10.67182922363281 3.872329711914063 7.272079467773438 7.272079467773438 C 3.872329711914063 10.67182922363281 2 15.19202041625977 2 20 C 2 24.80797004699707 3.872329711914063 29.32817077636719 7.272079467773438 32.72792053222656 C 10.67182922363281 36.12767028808594 15.19202041625977 38 20 38 C 24.80797004699707 38 29.32817077636719 36.12767028808594 32.72792053222656 32.72792053222656 C 36.12767028808594 29.32817077636719 38 24.80797004699707 38 20 C 38 15.19202041625977 36.12767028808594 10.67182922363281 32.72792053222656 7.272079467773438 C 29.32817077636719 3.872329711914063 24.80797004699707 2 20 2 M 20 0 C 31.04568862915039 0 40 8.954299926757813 40 20 C 40 31.04568862915039 31.04568862915039 40 20 40 C 8.954299926757813 40 0 31.04568862915039 0 20 C 0 8.954299926757813 8.954299926757813 0 20 0 Z" stroke="none" fill="#24ab74"/>
    </g>
  </g>
</svg>
