<svg xmlns="http://www.w3.org/2000/svg" xmlns:xlink="http://www.w3.org/1999/xlink" width="80" height="58.492" viewBox="0 0 80 58.492">
  <defs>
    <linearGradient id="linear-gradient" x1="0.12" y1="0.042" x2="0.871" y2="0.953" gradientUnits="objectBoundingBox">
      <stop offset="0" stop-color="#ff8000"/>
      <stop offset="1" stop-color="#fad961"/>
    </linearGradient>
    <clipPath id="clip-path">
      <rect id="Rectangle_216" data-name="Rectangle 216" width="28" height="21.217" fill="none"/>
    </clipPath>
  </defs>
  <g id="マッチング" transform="translate(-506 -1726)">
    <path id="Union_37" data-name="Union 37" d="M-1969.246,49.926h-21.508V8.566h21.508V0L-1940,29.247l-29.247,29.246ZM-2020,29.247-1990.754,0V58.492Z" transform="translate(2526 1726)" fill="url(#linear-gradient)"/>
    <text id="matching_" data-name="matching!" transform="matrix(0.998, -0.07, 0.07, 0.998, 545.769, 1746.514)" font-size="12" font-family="Massilia-Bold, Massilia" font-weight="700"><tspan x="-27.582" y="0">matching!</tspan></text>
    <g id="Group_171" data-name="Group 171" transform="translate(532 1750.525)">
      <g id="Group_173" data-name="Group 173" transform="translate(0 0)" clip-path="url(#clip-path)">
        <path id="Path_511" data-name="Path 511" d="M26.9,6.3,23.022,9.68l-.016.34a2.749,2.749,0,0,1-.184.748c-.06.148-.128.3-.2.444l-4.4-3.8a.8.8,0,0,0-.624-.188A27.788,27.788,0,0,0,11.109,9a1.9,1.9,0,0,1-.721.176.6.6,0,0,1-.268-.052A.438.438,0,0,1,9.912,8.9a.994.994,0,0,1-.1-.453A1.091,1.091,0,0,1,10,7.827c.124-.16.276-.38.484-.664a16.431,16.431,0,0,1,1.241-1.5,8.091,8.091,0,0,1,1.7-1.4,4.169,4.169,0,0,1,2.2-.612,8.314,8.314,0,0,1,1.2.108,7.892,7.892,0,0,0,1.16.128,2.094,2.094,0,0,0,.813-.144h0a7.11,7.11,0,0,0,1.309-.777,21.85,21.85,0,0,0,1.776-1.473c.1-.084.184-.168.264-.244L21.061.084c-.24.224-.553.5-.889.788s-.716.6-1.069.845a5.008,5.008,0,0,1-.916.544.531.531,0,0,1-.2.024,7.15,7.15,0,0,1-.924-.108,9.552,9.552,0,0,0-1.433-.128,5.671,5.671,0,0,0-1.549.208,5.783,5.783,0,0,0-1.549-.208,9.5,9.5,0,0,0-1.429.128,7.112,7.112,0,0,1-.928.108.52.52,0,0,1-.2-.024A5.226,5.226,0,0,1,9,1.669,19.531,19.531,0,0,1,7.355.308C7.231.2,7.119.092,7.019,0l-1.1,1.164c.236.22.544.5.888.8.384.328.813.68,1.245,1a7.116,7.116,0,0,0,1.309.777,2.105,2.105,0,0,0,.812.144,7.392,7.392,0,0,0,1.164-.128c.028,0,.052,0,.076-.008a12.788,12.788,0,0,0-1.389,1.413C9.7,5.55,9.42,5.914,9.2,6.214s-.384.536-.46.632a2.63,2.63,0,0,0-.524,1.6A2.5,2.5,0,0,0,8.72,10a2,2,0,0,0,.708.568,2.262,2.262,0,0,0,.96.208,3.442,3.442,0,0,0,1.345-.3,25.05,25.05,0,0,1,4.158-1.3c.576-.128,1.057-.216,1.393-.272.064-.012.116-.02.168-.028l5.03,4.334v0h0a.323.323,0,0,1-.044.128,1.1,1.1,0,0,1-.908.528,1.07,1.07,0,0,0-.2.024,1.825,1.825,0,0,1-.34-.1,3.45,3.45,0,0,1-.9-.54,3.215,3.215,0,0,1-.268-.236l-.068-.064-.016-.016v0a.61.61,0,0,0-.444-.192.6.6,0,0,0-.44,1,4.816,4.816,0,0,0,.816.692,4.564,4.564,0,0,0,.885.476c.076.028.16.06.244.084a.843.843,0,0,0,.088.152h0l0,0a.614.614,0,0,1,.032.236,1.242,1.242,0,0,1-.192.668.5.5,0,0,1-.168.164.454.454,0,0,1-.224.056H20.3a.183.183,0,0,0-.064,0h0a2.477,2.477,0,0,1-1.361-.468,3.466,3.466,0,0,1-.42-.332,1.126,1.126,0,0,1-.1-.1l-.024-.024,0,0v0a.6.6,0,0,0-.9.789,4.114,4.114,0,0,0,.78.672,3.957,3.957,0,0,0,1.224.568.182.182,0,0,0-.016.04.858.858,0,0,1-.4.432,1.913,1.913,0,0,1-.368.172.6.6,0,0,1-.188.028,2.077,2.077,0,0,1-.388-.056.921.921,0,0,0-.108-.012.255.255,0,0,1-.04-.016,3.8,3.8,0,0,1-.621-.408c-.088-.068-.164-.136-.216-.18l-.06-.056L17,17.3h0a.6.6,0,1,0-.829.865,5.664,5.664,0,0,0,.62.508c.06.048.132.092.2.136a1.072,1.072,0,0,1-.3.332.914.914,0,0,1-.556.164,1.767,1.767,0,0,1-.672-.148,2.559,2.559,0,0,1-.232-.12,2.1,2.1,0,0,0,.068-.52,1.99,1.99,0,0,0-1.825-1.989c0-.02,0-.044,0-.064a2.23,2.23,0,0,0-.328-1.16,2.19,2.19,0,0,0-1.857-1.036h-.012c-.032,0-.06,0-.088,0a2.143,2.143,0,0,0-.312-.9,2.192,2.192,0,0,0-1.473-1,2.189,2.189,0,0,0-2.2-2.173,2.2,2.2,0,0,0-1.161.332L5.282,11c-.02-.04-.044-.084-.06-.124a2.672,2.672,0,0,1-.228-.856l-.016-.34L1.1,6.3,0,7.463l3.438,3a4.725,4.725,0,0,0,.3,1.024c.084.208.18.4.276.588A2.185,2.185,0,0,0,5.5,15.366a2.2,2.2,0,0,0,2.2,2.177.6.6,0,0,0,.084-.008,2.243,2.243,0,0,0,.316.9,2.2,2.2,0,0,0,1.869,1.037,1.992,1.992,0,0,0,.216-.016,2.04,2.04,0,0,0,.284.812,2.005,2.005,0,0,0,2.757.644l1-.62a3.539,3.539,0,0,0,.621.328,3.285,3.285,0,0,0,1.292.276,2.523,2.523,0,0,0,1.477-.452,2.711,2.711,0,0,0,.744-.816c.032,0,.06,0,.092,0a2.175,2.175,0,0,0,.66-.1,3.417,3.417,0,0,0,.689-.308,2.518,2.518,0,0,0,1.084-1.2c.036-.092.064-.176.088-.256a1.9,1.9,0,0,0,.392-.168,2.251,2.251,0,0,0,.908-1.029,2.909,2.909,0,0,0,.256-1.192,1.144,1.144,0,0,0-.008-.116,2.691,2.691,0,0,0,.772-.476,2.476,2.476,0,0,0,.56-.7,1.891,1.891,0,0,0,.236-.892,1.587,1.587,0,0,0-.14-.652,1.086,1.086,0,0,0-.116-.192,7.461,7.461,0,0,0,.484-1.012,4.641,4.641,0,0,0,.248-.877l3.437-3Zm-20.657,7.4-.036.024a.608.608,0,0,1-.316.088.59.59,0,0,1-.508-.28.582.582,0,0,1-.092-.316.607.607,0,0,1,.284-.508l1.317-.82a.622.622,0,0,1,.316-.088.592.592,0,0,1,.508.28l.681-.42-.681.424a.565.565,0,0,1,.092.312.617.617,0,0,1-.144.384l-1.132.7a2.16,2.16,0,0,0-.288.216M8.012,15.85a.58.58,0,0,1-.316.092.594.594,0,0,1-.508-.284.57.57,0,0,1-.092-.312.615.615,0,0,1,.144-.384l1.132-.7a2.236,2.236,0,0,0,.285-.216l.04-.024a.586.586,0,0,1,.316-.092.6.6,0,0,1,.508.284.566.566,0,0,1,.092.312.608.608,0,0,1-.284.512ZM11.6,16.967l-1.32.82a.6.6,0,0,1-.82-.192.594.594,0,0,1,.192-.824l1.317-.82a.611.611,0,0,1,.316-.088.594.594,0,0,1,.508.28.609.609,0,0,1,.088.316.594.594,0,0,1-.28.508m1.913,1.885-1.132.7a.371.371,0,0,1-.212.06.4.4,0,0,1-.34-.188.4.4,0,0,1-.06-.212.388.388,0,0,1,.188-.336v0l1.132-.7a.429.429,0,0,1,.212-.06.4.4,0,0,1,.34.192.367.367,0,0,1,.06.208.392.392,0,0,1-.188.34" transform="translate(0 0)"/>
      </g>
    </g>
  </g>
</svg>
