<svg xmlns="http://www.w3.org/2000/svg" xmlns:xlink="http://www.w3.org/1999/xlink" width="46" height="45.318" viewBox="0 0 46 45.318">
  <defs>
    <clipPath id="clip-path">
      <rect id="Rectangle_285" data-name="Rectangle 285" width="46" height="45.318" fill="#24ab74"/>
    </clipPath>
  </defs>
  <g id="Group_247" data-name="Group 247" transform="translate(-328.088 -9777.891)">
    <path id="Path_548" data-name="Path 548" d="M2350.657,9790.049l20.08-11,21.674,11v20.877l-21.674,11.155-20.08-11.155Z" transform="translate(-2020)" fill="#fff"/>
    <g id="Group_234" data-name="Group 234" transform="translate(328.088 9777.891)">
      <g id="Group_226" data-name="Group 226" clip-path="url(#clip-path)">
        <path id="Path_535" data-name="Path 535" d="M41.224,8.268,27.017.971a8.793,8.793,0,0,0-8.035,0L4.776,8.268A8.793,8.793,0,0,0,0,16.089v13.14A8.794,8.794,0,0,0,4.776,37.05l14.207,7.3a8.787,8.787,0,0,0,8.033,0l14.208-7.3A8.794,8.794,0,0,0,46,29.229V16.089a8.792,8.792,0,0,0-4.776-7.821M5.981,10.613l14.206-7.3a6.154,6.154,0,0,1,5.624,0l5.522,2.836L11.741,16.213l0,.005-7.75-3.979a6.152,6.152,0,0,1,1.988-1.626m16.14,32A6.13,6.13,0,0,1,20.188,42l-14.206-7.3a6.158,6.158,0,0,1-3.344-5.477V16.089A6.121,6.121,0,0,1,3.1,13.758l19.016,9.765Zm-8.94-25.654,19.6-10.063,7.242,3.719a6.151,6.151,0,0,1,1.987,1.626L23,22ZM43.363,29.229a6.159,6.159,0,0,1-3.344,5.477L25.812,42a6.161,6.161,0,0,1-1.933.608V23.523L42.9,13.758a6.121,6.121,0,0,1,.468,2.332Z" fill="#24ab74"/>
        <path id="Path_536" data-name="Path 536" d="M19.978,57.1l6.153,2.908c.789.373,1.428.036,1.428-.753a2.6,2.6,0,0,0-1.428-2.1l-6.153-2.908c-.789-.373-1.429-.036-1.429.753a2.6,2.6,0,0,0,1.429,2.1" transform="translate(-11.883 -34.655)" fill="#24ab74"/>
      </g>
    </g>
  </g>
</svg>
